# xmcd
#
# Track frame offsets:
#	150
#	9429
#	22787
#	35890
#	47481
#	59429
#	73068
#	85350
#	94360
#	106522
#	120141
#	136571
#	147067
#	159135
#	170151
#	184275
#	198773
#	213841
#	225795
#	238666
#	249901
#	263703
#	276999
#	288902
#
# Disc length: 4017
#
# Revision: 1
# Processed by: cddbd v1.5.1PL0 Copyright (c) Steve Scherf et al.
# Submitted via: CDex 1.51
# Normalized: r0:TDELIM( - )
#
DISCID=370faf18
DTITLE=Various Artist - The Travelling Record Man
DYEAR=1952
DGENRE=Blues
TTITLE0=Baby Face Turner - Blue Serenade
TTITLE1=Driftin' Slim - My Sweet Woman
TTITLE2=Charlie Booker - No Ridin' Blues
TTITLE3=Big Charlie Bradix - Numbered Days
TTITLE4=Howling Wolf - Riding In The Moonlight
TTITLE5=Smokey Hogg - I'm Gonna Find Your Trick
TTITLE6=Pinetop Slim - Baby Please Don't Go
TTITLE7=Lil' Son Jackson - Cairo Blues
TTITLE8=Joe Hill Louis - Good Morning Little Angel
TTITLE9=Tiny Webb - Tiny's Down Home
TTITLE10=Jesse Thomas - Tomorrow I May Be Gone
TTITLE11=Sunny Blair - Please Send My Baby Back Home
TTITLE12=Alexander Moore - If I Lose You Woman
TTITLE13=Driftin' Slim - My Little Machine
TTITLE14=Elmore James - My Baby's Gone
TTITLE15=Washboard Willie and Calvin Frazier - Rock House
TTITLE16=Joe Hill Louis - She Broke Up My Life
TTITLE17=Joe Hill Louis - Keep Away From My Baby
TTITLE18=Jesse Thomas - Meet Me Tonight
TTITLE19=Willie Nix - Lonesome Bedroom Blues
TTITLE20=Lil' Son Jackson - Talking Boogie
TTITLE21=Elmore James - Long Tall Woman
TTITLE22=Arkansas Johnny Todd - I'll Be Glad When You're Dead, You Rascal You
TTITLE23=Boyd Gilmore - Ramblin' On My Mind
EXTD=YEAR: 1952
EXTT0=
EXTT1=
EXTT2=
EXTT3=
EXTT4=
EXTT5=
EXTT6=
EXTT7=
EXTT8=
EXTT9=
EXTT10=
EXTT11=
EXTT12=
EXTT13=
EXTT14=
EXTT15=
EXTT16=
EXTT17=
EXTT18=
EXTT19=
EXTT20=
EXTT21=
EXTT22=
EXTT23=
PLAYORDER=
